<svg xmlns="http://www.w3.org/2000/svg" xmlns:xlink="http://www.w3.org/1999/xlink" width="1920" height="500" viewBox="0 0 1920 500">
  <defs>
    <clipPath id="clip-booking-bg">
      <rect width="1920" height="500"/>
    </clipPath>
  </defs>
  <g id="booking-bg" clip-path="url(#clip-booking-bg)">
    <rect width="1920" height="500" fill="#dc243f"/>
    <g id="Group_1" data-name="Group 1" transform="translate(583.002 80.464)" opacity="0.61">
      <rect id="Rectangle_1" data-name="Rectangle 1" width="64.391" height="41.18" transform="translate(469.761 220.877)" fill="#f2526a"/>
      <rect id="Rectangle_2" data-name="Rectangle 2" width="64.391" height="41.18" transform="translate(369.43 285.268)" fill="#f2526a"/>
      <path id="Path_1" data-name="Path 1" d="M834.267,303.354v-87.6H785.6v-56.9H752.655v56.9H703.987v87.6H677.032V106.437H622.375V87.718H549.747V69H477.869V87.718H409.734v18.718h-59.15V302.605H319.137V215H270.469V158.1H237.525V215H188.857v87.6H157.41V613.331h71.879V503.267h49.417V613.331H471.879V485.3h83.858V613.331h116.8v.749h71.879V504.015h49.417V614.079h71.879V303.354ZM183.241,340.791h28.452v22.462H183.241Zm.374,62.894h28.452v22.462H183.616Zm28.826,85.356H183.99V466.579h28.452Zm74.5-202.907H221.053V272.656h65.889Zm0-19.467H221.053V253.189h65.889Zm0-19.467H221.053V233.722h65.889Zm9.359,93.592h28.452v22.462H296.3Zm.374,62.894h28.452v22.462H296.675ZM325.5,489.041H297.049V466.579H325.5ZM441.93,451.6H389.518V428.393H441.93Zm0-66.637H389.518V361.756H441.93Zm0-66.637H389.518V295.118H441.93Zm0-66.637H389.518V228.481H441.93Zm0-66.637H389.518V161.843H441.93ZM540.014,451.6H487.6V428.393h52.412Zm0-66.637H487.6V361.756h52.412Zm0-66.637H487.6V295.118h52.412Zm0-66.637H487.6V228.481h52.412Zm0-66.637H487.6V161.843h52.412ZM638.1,451.6H585.687V428.393H638.1Zm0-66.637H585.687V361.756H638.1Zm0-66.637H585.687V295.118H638.1Zm0-66.637H585.687V228.481H638.1Zm0-66.637H585.687V161.843H638.1ZM698.371,341.54h28.452V364H698.371Zm.374,62.894H727.2V426.9H698.746Zm28.826,85.356H699.12V467.327h28.452Zm74.5-202.907H736.182V273.4h65.889Zm0-19.467H736.182V253.938h65.889Zm0-19.467H736.182V234.471h65.889Zm9.359,93.592h28.452V364H811.43Zm.374,62.894h28.452V426.9H811.8Zm28.826,85.356H812.179V467.327h28.452Z" transform="translate(-111.876 -69)" fill="rgba(188,16,41,0.75)"/>
      <path id="Path_2" data-name="Path 2" d="M216.244,692.29c-.209,2.962-.537,6.275-1.044,9.756l9.154-10.152.05.17a26.676,26.676,0,0,0-2.677-6.987l.059.161Z" transform="translate(-126.396 -223.798)" fill="#6c63ff"/>
      <path id="Path_3" data-name="Path 3" d="M216.642,689.95l5.368-6.831a14.051,14.051,0,0,0-4.8-5.117c-.1-.059-.2-.114-.3-.168C216.942,678.641,217.082,683.377,216.642,689.95Z" transform="translate(-126.758 -221.978)" fill="#6c63ff"/>
      <path id="Path_4" data-name="Path 4" d="M209.929,726.67q-.354,1.077-.731,2.116l13.481-7.9.019.2q.422-1.844.7-3.687l-13.46,9.367Z" transform="translate(-124.888 -231.918)" fill="#6c63ff"/>
      <path id="Path_5" data-name="Path 5" d="M212.678,714.321l12.141-10.013.034.187a41.934,41.934,0,0,0-1.041-9.844L214.484,705Q213.749,709.888,212.678,714.321Z" transform="translate(-125.762 -226.204)" fill="#6c63ff"/>
      <path id="Path_6" data-name="Path 6" d="M208.794,702.7,194.266,686.5l.078-.183a35.012,35.012,0,0,0-3.486,6.136L207.437,710.1C208,707.523,208.448,705.029,208.794,702.7Z" transform="translate(-120.28 -224.109)" fill="#6c63ff"/>
      <path id="Path_7" data-name="Path 7" d="M190.649,694.933h0c.026-.06.049-.126.075-.185Z" transform="translate(-120.227 -226.228)" fill="#6c63ff"/>
      <path id="Path_8" data-name="Path 8" d="M189.544,697.651l-.075.185c.024-.064.051-.122.075-.185Z" transform="translate(-119.931 -226.958)" fill="#6c63ff"/>
      <path id="Path_9" data-name="Path 9" d="M207.017,712.711,190.378,695q-.422.966-.808,1.988l17.006,17.6Q206.807,713.642,207.017,712.711Z" transform="translate(-119.956 -226.291)" fill="#6c63ff"/>
      <path id="Path_10" data-name="Path 10" d="M223.728,714.818a50.078,50.078,0,0,0,.54-6.729l-12.305,10.148q-.731,2.952-1.609,5.676l13.348-9.289Z" transform="translate(-125.178 -229.58)" fill="#6c63ff"/>
      <path id="Path_11" data-name="Path 11" d="M186.563,716.653l13.469,17.572a60.251,60.251,0,0,0,2.927-6.6l-16.434-17.261a48.438,48.438,0,0,0-.054,6.485Z" transform="translate(-119.156 -230.152)" fill="#6c63ff"/>
      <path id="Path_12" data-name="Path 12" d="M213.627,677.427l.121-.054a9.5,9.5,0,0,0-9.2.191l8.821,11.981C213.84,682.435,213.63,677.5,213.627,677.427Z" transform="translate(-123.719 -221.587)" fill="#6c63ff"/>
      <path id="Path_13" data-name="Path 13" d="M207.727,731.28a59.832,59.832,0,0,1-2.645,5.95l13.548-7.01.014.2a23.726,23.726,0,0,0,2.375-5.5q.323-1.136.589-2.278l-13.642,8C207.887,730.853,207.808,731.068,207.727,731.28Z" transform="translate(-123.854 -233.237)" fill="#6c63ff"/>
      <path id="Path_14" data-name="Path 14" d="M211.1,690.535l-9.024-12.256.085-.175a20.193,20.193,0,0,0-6.5,6l14.409,16.078C210.567,696.737,210.89,693.463,211.1,690.535Z" transform="translate(-121.486 -222.046)" fill="#6c63ff"/>
      <path id="Path_15" data-name="Path 15" d="M203.166,724.163a81.29,81.29,0,0,0,2.565-8.365l-17.048-17.645q-.609,1.653-1.118,3.439a29.123,29.123,0,0,0-.94,5.218l16.528,17.36Z" transform="translate(-119.216 -227.084)" fill="#6c63ff"/>
      <path id="Path_16" data-name="Path 16" d="M229.746,757.624c-2.05,2.148-4.416,4.49-7.027,6.848l13.525-1.98-.07.163a26.673,26.673,0,0,0,2.394-7.089l-.057.161Z" transform="translate(-128.285 -241.51)" fill="#6c63ff"/>
      <path id="Path_17" data-name="Path 17" d="M240.64,745.9c-.038-.108-.079-.213-.121-.318-.492.64-3.4,4.378-7.936,9.159l8.491-1.838a14.052,14.052,0,0,0-.435-7Z" transform="translate(-130.764 -239)" fill="#6c63ff"/>
      <path id="Path_18" data-name="Path 18" d="M204.148,781.234q-.96.6-1.912,1.163l15.424,2.51-.112.165q1.5-1.15,2.894-2.391l-16.342-1.37Z" transform="translate(-123.139 -247.959)" fill="#6c63ff"/>
      <path id="Path_19" data-name="Path 19" d="M212.37,773.306l15.738.032-.093.166a41.941,41.941,0,0,0,5.477-8.246l-13.783,2.018Q216.022,770.575,212.37,773.306Z" transform="translate(-125.685 -243.945)" fill="#6c63ff"/>
      <path id="Path_20" data-name="Path 20" d="M205.283,779.8l16.206,1.359-.1.166a50.08,50.08,0,0,0,4.708-4.838l-15.95-.032Q207.7,778.257,205.283,779.8Z" transform="translate(-123.904 -246.757)" fill="#6c63ff"/>
      <path id="Path_21" data-name="Path 21" d="M173.09,773.212c.115-.116.236-.242.356-.366a41.664,41.664,0,0,0,9.617-2.748l.44-11.679q.2-.446.381-.9l-.469,12.43a60.223,60.223,0,0,0,6.462-3.215l-1.5-21.712.353-.185,1.5,21.684.015,0a81.258,81.258,0,0,0,7.311-4.806l-1.639-21.366c.116-.085.232-.168.348-.255l1.639,21.365q.78-.578,1.535-1.162l-1.352-21.629c.116-.095.231-.19.347-.287l1.353,21.645c2.081-1.622,4.013-3.26,5.762-4.829l-.85-21.75.177-.092c-.6.157-1.218.344-1.837.548a30.7,30.7,0,0,0,3.13-4.267l-13.678,7.077a46.006,46.006,0,0,1-3.188,5.191c-.244.231-.489.461-.73.7l.018.26c-.112.147-.223.3-.336.439l-.024-.35c-.173.177-.341.365-.512.546a43.224,43.224,0,0,0,4.539-6.94l-13.37-17.443c.091,1.559.243,3.129.44,4.685a26.383,26.383,0,0,0-4.482-5.476l.105.135-3.09,8.419c.716,2.882,1.429,6.134,2.023,9.6l5.491-12.313c.025.192.052.383.078.575l-5.478,12.283q.813,4.879,1.164,9.426l6.575-10.327c.038.148.075.3.113.443l-6.646,10.439q.217,3.034.224,5.9l8.037-10.6.126.409-8.122,10.716-.04-.082q0,1.134-.041,2.238l9.066-10.207q.072.213.134.393l-9.222,10.383c-.009.228-.018.457-.029.684a59.845,59.845,0,0,1-.677,6.476l.875-.886q-.249.516-.484,1.017l-.5.5c-.057.328-.122.648-.185.97q-.276.605-.531,1.181c.164-.736.318-1.477.449-2.224l-18.107-12.457c4.724,12.086,13.62,23.582,14.189,24.312.462-.864.882-1.752,1.268-2.659l.336-.033c-.046.112-.094.221-.141.332-.056.006-.114.015-.17.021l.144.04c-.272.633-.553,1.257-.855,1.858.4-.355,1-.917,1.717-1.629,4.258,1.087,15.728,3.411,25.55-.022l-15.048-3.273a42.083,42.083,0,0,1-10.055,2.849Zm10.574-19.041.361-.365-.021.547-.361.365Z" transform="translate(-111.56 -232.154)" fill="#6c63ff"/>
      <path id="Path_22" data-name="Path 22" d="M240.281,743.445l.127.035a9.5,9.5,0,0,0-7.21-5.723l-.848,14.854C237.251,747.438,240.238,743.5,240.281,743.445Z" transform="translate(-130.705 -237.035)" fill="#6c63ff"/>
      <path id="Path_23" data-name="Path 23" d="M198.828,783.51a59.871,59.871,0,0,1-5.832,2.9l14.905,3.242-.114.159a23.721,23.721,0,0,0,5.335-2.718q.973-.669,1.907-1.379l-15.608-2.541C199.223,783.284,199.025,783.4,198.828,783.51Z" transform="translate(-120.817 -248.445)" fill="#6c63ff"/>
      <path id="Path_24" data-name="Path 24" d="M222.306,759.662c2.579-2.333,4.916-4.649,6.943-6.772l.868-15.195.177-.081a20.194,20.194,0,0,0-8.83.474Z" transform="translate(-127.97 -236.929)" fill="#6c63ff"/>
      <path id="Path_25" data-name="Path 25" d="M178.786,717.031a14.052,14.052,0,0,0-6.147-3.382c-.112-.025-.223-.047-.334-.069.277.758,1.875,5.219,3.488,11.606Z" transform="translate(-115.618 -230.96)" fill="#6c63ff"/>
      <path id="Path_26" data-name="Path 26" d="M172.821,739.41l-18.827-10.925.017-.2a35.01,35.01,0,0,0-1.418,6.913l21.222,11.662C173.56,744.236,173.21,741.727,172.821,739.41Z" transform="translate(-110.665 -234.655)" fill="#6c63ff"/>
      <path id="Path_27" data-name="Path 27" d="M152.545,737.98h0c.006-.065.008-.135.014-.2Z" transform="translate(-110.653 -237.041)" fill="#6c63ff"/>
      <path id="Path_28" data-name="Path 28" d="M152.334,740.906l-.014.2c0-.068.011-.131.014-.2Z" transform="translate(-110.597 -237.826)" fill="#6c63ff"/>
      <path id="Path_29" data-name="Path 29" d="M173.794,749.752l-21.3-11.7q-.1,1.05-.154,2.141l21.614,11.483Q173.883,750.7,173.794,749.752Z" transform="translate(-110.602 -237.108)" fill="#6c63ff"/>
      <path id="Path_30" data-name="Path 30" d="M174.382,765.262l-20.965-11.336a48.453,48.453,0,0,0,1.953,6.184l.028-.216,18.241,12.548a60.235,60.235,0,0,0,.744-7.18Z" transform="translate(-110.872 -241.097)" fill="#6c63ff"/>
      <path id="Path_31" data-name="Path 31" d="M169.1,713.583l.1-.089a9.5,9.5,0,0,0-8.694,3.026l12.093,8.668C170.852,718.279,169.127,713.649,169.1,713.583Z" transform="translate(-112.653 -230.901)" fill="#6c63ff"/>
      <path id="Path_32" data-name="Path 32" d="M171.235,726.812l-12.37-8.867.027-.192a20.2,20.2,0,0,0-4.327,7.712L173.238,736.3C172.648,732.874,171.943,729.66,171.235,726.812Z" transform="translate(-111.161 -232.008)" fill="#6c63ff"/>
      <path id="Path_33" data-name="Path 33" d="M174.11,761.7a81.276,81.276,0,0,0-.146-8.748L152.3,741.445q-.068,1.76,0,3.617a29.126,29.126,0,0,0,.719,5.253l21.085,11.4Z" transform="translate(-110.582 -237.962)" fill="#6c63ff"/>
      <path id="Path_34" data-name="Path 34" d="M1072.24,689.29c-.209,2.962-.537,6.275-1.044,9.756l9.154-10.152.05.17a26.674,26.674,0,0,0-2.677-6.987l.059.161Z" transform="translate(-341.477 -223.045)" fill="#6c63ff"/>
      <path id="Path_35" data-name="Path 35" d="M1072.64,686.95l5.368-6.831a14.048,14.048,0,0,0-4.8-5.116c-.1-.059-.2-.114-.3-.168C1072.94,675.641,1073.082,680.377,1072.64,686.95Z" transform="translate(-341.84 -221.225)" fill="#6c63ff"/>
      <path id="Path_36" data-name="Path 36" d="M1065.925,723.67q-.354,1.077-.731,2.116l13.481-7.9.019.2q.422-1.844.7-3.687l-13.46,9.367Z" transform="translate(-339.969 -231.164)" fill="#6c63ff"/>
      <path id="Path_37" data-name="Path 37" d="M1068.68,711.321l12.141-10.013.035.187a41.937,41.937,0,0,0-1.041-9.844L1070.486,702Q1069.751,706.888,1068.68,711.321Z" transform="translate(-340.845 -225.45)" fill="#6c63ff"/>
      <path id="Path_38" data-name="Path 38" d="M1064.791,699.7l-14.528-16.21.078-.183a35.023,35.023,0,0,0-3.486,6.136l16.578,17.651C1064,704.523,1064.447,702.029,1064.791,699.7Z" transform="translate(-335.362 -223.355)" fill="#6c63ff"/>
      <path id="Path_39" data-name="Path 39" d="M1046.65,691.933h0c.026-.06.049-.126.075-.185Z" transform="translate(-335.31 -225.475)" fill="#6c63ff"/>
      <path id="Path_40" data-name="Path 40" d="M1063.015,709.711,1046.376,692q-.422.967-.808,1.988l17.006,17.6Q1062.805,710.642,1063.015,709.711Z" transform="translate(-335.038 -225.537)" fill="#6c63ff"/>
      <path id="Path_41" data-name="Path 41" d="M1045.545,694.651l-.075.185c.024-.064.051-.122.075-.185Z" transform="translate(-335.013 -226.204)" fill="#6c63ff"/>
      <path id="Path_42" data-name="Path 42" d="M1079.732,711.818a50.068,50.068,0,0,0,.54-6.729l-12.305,10.148q-.732,2.952-1.609,5.676l13.348-9.289Z" transform="translate(-340.262 -228.827)" fill="#6c63ff"/>
      <path id="Path_43" data-name="Path 43" d="M1042.561,713.653l13.469,17.572a60.23,60.23,0,0,0,2.927-6.6l-16.434-17.261a48.446,48.446,0,0,0-.054,6.485Z" transform="translate(-334.238 -229.399)" fill="#6c63ff"/>
      <path id="Path_44" data-name="Path 44" d="M1069.622,674.427l.121-.054a9.5,9.5,0,0,0-9.2.191l8.821,11.981A118.738,118.738,0,0,0,1069.622,674.427Z" transform="translate(-338.8 -220.833)" fill="#6c63ff"/>
      <path id="Path_45" data-name="Path 45" d="M1063.722,728.28a59.849,59.849,0,0,1-2.645,5.95l13.548-7.01.014.195a23.735,23.735,0,0,0,2.375-5.5q.323-1.136.589-2.278l-13.641,8C1063.887,727.853,1063.8,728.068,1063.722,728.28Z" transform="translate(-338.935 -232.483)" fill="#6c63ff"/>
      <path id="Path_46" data-name="Path 46" d="M1067.1,687.535l-9.03-12.256.085-.175a20.193,20.193,0,0,0-6.5,6l14.409,16.078C1066.566,693.737,1066.888,690.463,1067.1,687.535Z" transform="translate(-336.567 -221.293)" fill="#6c63ff"/>
      <path id="Path_47" data-name="Path 47" d="M1059.169,721.163a81.3,81.3,0,0,0,2.565-8.365l-17.048-17.645q-.609,1.653-1.118,3.439a29.119,29.119,0,0,0-.94,5.218l16.528,17.36Z" transform="translate(-334.299 -226.33)" fill="#6c63ff"/>
      <path id="Path_48" data-name="Path 48" d="M1085.742,754.624c-2.05,2.148-4.416,4.49-7.027,6.848l13.525-1.98-.07.163a26.681,26.681,0,0,0,2.394-7.089l-.057.161Z" transform="translate(-343.367 -240.756)" fill="#6c63ff"/>
      <path id="Path_49" data-name="Path 49" d="M1096.636,742.9c-.038-.108-.079-.213-.121-.318-.492.64-3.4,4.378-7.936,9.159l8.491-1.838a14.052,14.052,0,0,0-.435-7Z" transform="translate(-345.845 -238.247)" fill="#6c63ff"/>
      <path id="Path_50" data-name="Path 50" d="M1060.148,778.234q-.959.6-1.912,1.163l15.424,2.511-.112.165q1.5-1.151,2.894-2.391l-16.342-1.371Z" transform="translate(-338.221 -247.205)" fill="#6c63ff"/>
      <path id="Path_51" data-name="Path 51" d="M1068.37,770.306l15.738.032-.093.166a41.942,41.942,0,0,0,5.477-8.245l-13.783,2.018Q1072.024,767.575,1068.37,770.306Z" transform="translate(-340.767 -243.191)" fill="#6c63ff"/>
      <path id="Path_52" data-name="Path 52" d="M1061.28,776.8l16.206,1.359-.1.166a50.094,50.094,0,0,0,4.708-4.838l-15.95-.032Q1063.7,775.258,1061.28,776.8Z" transform="translate(-338.986 -246.003)" fill="#6c63ff"/>
      <path id="Path_53" data-name="Path 53" d="M1029.087,770.212c.115-.116.236-.242.356-.366a41.656,41.656,0,0,0,9.617-2.748l.44-11.679q.2-.446.381-.9l-.469,12.43a60.214,60.214,0,0,0,6.463-3.215l-1.505-21.712.353-.185,1.5,21.684.015,0a81.294,81.294,0,0,0,7.311-4.806l-1.639-21.366c.116-.085.232-.168.348-.255l1.639,21.365q.78-.578,1.535-1.162l-1.352-21.629c.116-.095.231-.19.347-.287l1.353,21.645c2.081-1.622,4.013-3.26,5.762-4.829l-.85-21.751.177-.092c-.6.158-1.218.344-1.837.548a30.7,30.7,0,0,0,3.13-4.266l-13.678,7.077a46,46,0,0,1-3.187,5.191c-.245.231-.489.461-.73.7l.018.26c-.112.147-.223.3-.336.44l-.024-.35c-.173.177-.341.365-.512.546a43.221,43.221,0,0,0,4.539-6.94l-13.37-17.443c.091,1.559.243,3.129.44,4.685a26.382,26.382,0,0,0-4.482-5.476l.105.135-3.089,8.419c.716,2.882,1.428,6.134,2.023,9.6l5.491-12.313c.025.192.052.383.078.575l-5.478,12.283q.813,4.879,1.164,9.426l6.575-10.327c.038.148.075.3.113.443l-6.646,10.438q.217,3.034.224,5.9l8.037-10.6.126.409-8.122,10.716-.04-.082q0,1.134-.041,2.238l9.066-10.207q.072.213.134.393l-9.223,10.383c-.01.228-.018.457-.029.684a59.859,59.859,0,0,1-.677,6.476l.875-.886q-.249.516-.484,1.017l-.5.5c-.057.328-.122.648-.185.97q-.276.605-.531,1.181c.164-.736.318-1.477.449-2.224l-18.107-12.457c4.724,12.086,13.62,23.582,14.189,24.312.462-.864.882-1.752,1.268-2.659l.336-.033c-.046.111-.094.221-.141.332-.056.006-.114.015-.17.021l.144.04c-.272.633-.553,1.257-.855,1.858.4-.355,1-.917,1.717-1.629,4.258,1.087,15.728,3.411,25.55-.022l-15.048-3.273A42.083,42.083,0,0,1,1029.087,770.212Zm10.574-19.041.361-.365-.021.547-.361.365Z" transform="translate(-326.642 -231.4)" fill="#6c63ff"/>
      <path id="Path_54" data-name="Path 54" d="M1096.278,740.445l.127.035a9.5,9.5,0,0,0-7.21-5.723l-.848,14.854A118.781,118.781,0,0,0,1096.278,740.445Z" transform="translate(-345.787 -236.281)" fill="#6c63ff"/>
      <path id="Path_55" data-name="Path 55" d="M1054.823,780.511a59.842,59.842,0,0,1-5.832,2.9l14.905,3.242-.114.159a23.723,23.723,0,0,0,5.335-2.718q.973-.669,1.907-1.379l-15.608-2.541C1055.22,780.284,1055.025,780.4,1054.823,780.511Z" transform="translate(-335.898 -247.692)" fill="#6c63ff"/>
      <path id="Path_56" data-name="Path 56" d="M1078.307,756.662c2.579-2.333,4.916-4.649,6.943-6.772l.867-15.195.177-.081a20.194,20.194,0,0,0-8.83.474Z" transform="translate(-343.052 -236.175)" fill="#6c63ff"/>
      <path id="Path_57" data-name="Path 57" d="M1034.785,714.031a14.053,14.053,0,0,0-6.147-3.382c-.112-.025-.223-.047-.334-.068.277.758,1.875,5.219,3.488,11.606Z" transform="translate(-330.7 -230.207)" fill="#6c63ff"/>
      <path id="Path_58" data-name="Path 58" d="M1028.822,736.41,1010,725.485l.017-.2a35.013,35.013,0,0,0-1.418,6.913l21.222,11.662C1029.563,741.236,1029.211,738.727,1028.822,736.41Z" transform="translate(-325.748 -233.902)" fill="#6c63ff"/>
      <path id="Path_59" data-name="Path 59" d="M1008.335,737.906l-.014.2c0-.068.011-.131.014-.2Z" transform="translate(-325.679 -237.072)" fill="#6c63ff"/>
      <path id="Path_60" data-name="Path 60" d="M1008.54,734.98h0c.006-.065.008-.135.014-.2Z" transform="translate(-325.734 -236.287)" fill="#6c63ff"/>
      <path id="Path_61" data-name="Path 61" d="M1029.79,746.752l-21.3-11.7q-.1,1.05-.154,2.141l21.614,11.483Q1029.88,747.7,1029.79,746.752Z" transform="translate(-325.683 -236.354)" fill="#6c63ff"/>
      <path id="Path_62" data-name="Path 62" d="M1030.384,762.262l-20.965-11.336a48.437,48.437,0,0,0,1.953,6.184l.028-.216,18.241,12.548a60.246,60.246,0,0,0,.744-7.18Z" transform="translate(-325.955 -240.344)" fill="#6c63ff"/>
      <path id="Path_63" data-name="Path 63" d="M1025.105,710.583l.1-.089a9.5,9.5,0,0,0-8.694,3.026l12.093,8.668C1026.85,715.279,1025.128,710.649,1025.105,710.583Z" transform="translate(-327.737 -230.147)" fill="#6c63ff"/>
      <path id="Path_64" data-name="Path 64" d="M1027.236,723.812l-12.37-8.867.027-.192a20.192,20.192,0,0,0-4.327,7.712l18.674,10.836C1028.651,729.874,1027.947,726.66,1027.236,723.812Z" transform="translate(-326.243 -231.255)" fill="#6c63ff"/>
      <path id="Path_65" data-name="Path 65" d="M1030.108,758.7a81.259,81.259,0,0,0-.146-8.748l-21.668-11.511q-.068,1.76,0,3.616a29.126,29.126,0,0,0,.719,5.253l21.085,11.4Z" transform="translate(-325.664 -237.208)" fill="#6c63ff"/>
      <path id="Path_66" data-name="Path 66" d="M60.812,727h708.3v10.134a16.071,16.071,0,0,1-16.071,16.071H76.883a16.071,16.071,0,0,1-16.071-16.072Z" transform="translate(-15.28 -182.669)" fill="#2f2e41"/>
      <rect id="Rectangle_3" data-name="Rectangle 3" width="708.304" height="14.226" transform="translate(45.531 536.095)" fill="#3f3d56"/>
      <path id="Path_67" data-name="Path 67" d="M889.83,128.971l8.135,5.159-4.939-8.98a8.043,8.043,0,0,1,4.919-1.756h.131a9.43,9.43,0,0,0,1.688-.125l2.757,1.748-1.182-2.149a9.812,9.812,0,0,0,4.823-3.66l4.934,3.129-3.117-5.667a14.44,14.44,0,0,1,11.055-5.588c5.131,0,9.7,3.052,12.653,7.806a9.458,9.458,0,0,0,8.363,4.509q.138-.005.276-.005c5.665,0,10.257,6.423,10.257,14.345s-4.592,14.345-10.257,14.345a7.7,7.7,0,0,1-3.573-.894,14.8,14.8,0,0,0-12.414-.243,12.941,12.941,0,0,1-10.554.024,14.812,14.812,0,0,0-12.3.238,7.691,7.691,0,0,1-3.535.875c-5.665,0-10.257-6.423-10.257-14.345a18.216,18.216,0,0,1,2.142-8.768Z" transform="translate(-295.368 -79.574)" fill="#f2f2f2"/>
      <path id="Path_68" data-name="Path 68" d="M337.334,187.425l5.175,3.282-3.142-5.712a5.117,5.117,0,0,1,3.129-1.117h.083a6,6,0,0,0,1.074-.079l1.754,1.112-.752-1.367a6.242,6.242,0,0,0,3.068-2.328l3.139,1.99-1.983-3.605a9.186,9.186,0,0,1,7.032-3.554c3.264,0,6.172,1.941,8.049,4.966a6.016,6.016,0,0,0,5.32,2.868q.087,0,.176,0c3.6,0,6.524,4.086,6.524,9.125s-2.921,9.125-6.524,9.125a4.9,4.9,0,0,1-2.273-.569,9.415,9.415,0,0,0-7.9-.154,8.232,8.232,0,0,1-6.714.016,9.422,9.422,0,0,0-7.827.151,4.892,4.892,0,0,1-2.249.556c-3.6,0-6.524-4.086-6.524-9.125a11.588,11.588,0,0,1,1.362-5.578Z" transform="translate(-156.741 -95.897)" fill="#f2f2f2"/>
      <path id="Path_69" data-name="Path 69" d="M151.334,210.919l5.175,3.282-3.142-5.712a5.117,5.117,0,0,1,3.129-1.117h.083a6,6,0,0,0,1.074-.079l1.754,1.112-.752-1.367a6.242,6.242,0,0,0,3.068-2.328l3.139,1.99-1.983-3.606a9.186,9.186,0,0,1,7.032-3.554c3.264,0,6.172,1.941,8.049,4.966a6.016,6.016,0,0,0,5.32,2.868q.088,0,.176,0c3.6,0,6.524,4.086,6.524,9.125s-2.921,9.125-6.524,9.125a4.9,4.9,0,0,1-2.273-.569,9.415,9.415,0,0,0-7.9-.154,8.232,8.232,0,0,1-6.714.016,9.422,9.422,0,0,0-7.827.151,4.892,4.892,0,0,1-2.249.556c-3.6,0-6.524-4.086-6.524-9.125a11.587,11.587,0,0,1,1.362-5.578Z" transform="translate(-110.006 -101.8)" fill="#f2f2f2"/>
      <path id="Path_70" data-name="Path 70" d="M401.011,665.864l-.9.9s.3,9.942.6,12.051,1.506,5.724.6,8.436-1.205,4.82-.9,5.122-.3,1.506-.3,1.506l2.41-1.506,3.917-9.038-1.808-9.641Z" transform="translate(-172.857 -218.971)" fill="#6c63ff"/>
      <path id="Path_71" data-name="Path 71" d="M401.011,665.864l-.9.9s.3,9.942.6,12.051,1.506,5.724.6,8.436-1.205,4.82-.9,5.122-.3,1.506-.3,1.506l2.41-1.506,3.917-9.038-1.808-9.641Z" transform="translate(-172.857 -218.971)" opacity="0.1"/>
      <path id="Path_72" data-name="Path 72" d="M418.817,788.777s0-3.314-.6-3.917-1.506-2.712-2.711-2.712-5.423,1.205-5.423,1.506a5.5,5.5,0,0,1-.6,2.711c-.6.9-3.916,4.519-.6,5.122a8.417,8.417,0,0,0,6.327-1.506c.3-.3,1.506-.6,1.808-.3S418.817,788.777,418.817,788.777Z" transform="translate(-174.695 -248.189)" fill="#6c63ff"/>
      <path id="Path_73" data-name="Path 73" d="M433.906,783.657l1.808,3.314s.6,3.013,1.506,3.314h.9s.9,3.314,3.013,3.013,4.519-1.506,4.519-2.109,0-2.41-.9-3.013a42.922,42.922,0,0,1-3.615-3.314l-1.506-1.506Z" transform="translate(-181.349 -248.492)" fill="#6c63ff"/>
      <path id="Path_74" data-name="Path 74" d="M402.044,635.774a4.065,4.065,0,0,0-2.176,3.043c-.168,2.151,1.959,4.178,1.275,6.224-.388,1.162-1.6,1.914-1.946,3.089a4.249,4.249,0,0,0,.39,2.757,21.04,21.04,0,0,0,1.73,3.345c1.27,1.994,2.923,3.886,3.262,6.225a2.657,2.657,0,0,1-.588,2.343,5.621,5.621,0,0,1,2.056-.978,26.157,26.157,0,0,0,8.436-4.7,5.268,5.268,0,0,0,1.951-2.593c.46-1.851-.945-3.7-.81-5.605a14.1,14.1,0,0,1,1.186-3.445,8.9,8.9,0,0,0-.769-6.935,8.274,8.274,0,0,0-4.925-4.283,9.771,9.771,0,0,0-4.977.144A18.286,18.286,0,0,0,402.044,635.774Z" transform="translate(-172.608 -210.966)" fill="#2f2e41"/>
      <path id="Path_75" data-name="Path 75" d="M405.291,657.2a7.815,7.815,0,0,1,6.813-4.111c4.82,0,3.917-.3,3.917-.3l-1.506,6.025-3.013,3.013Z" transform="translate(-174.159 -215.685)" fill="#6c63ff"/>
      <path id="Path_76" data-name="Path 76" d="M406.883,649.929s2.711,4.519.9,6.327a2.918,2.918,0,0,0-.6,3.916c.3.3,8.737.9,8.737.9l.3-4.218.9-3.615s-4.82-.9-4.218-3.013S406.883,649.929,406.883,649.929Z" transform="translate(-174.511 -214.786)" fill="#fbbebe"/>
      <path id="Path_77" data-name="Path 77" d="M406.883,649.929s2.711,4.519.9,6.327a2.918,2.918,0,0,0-.6,3.916c.3.3,8.737.9,8.737.9l.3-4.218.9-3.615s-4.82-.9-4.218-3.013S406.883,649.929,406.883,649.929Z" transform="translate(-174.511 -214.786)" opacity="0.1"/>
      <path id="Path_78" data-name="Path 78" d="M434.3,706.9a20.773,20.773,0,0,1-1.205,3.013c-.3.3-1.205-2.109-1.205-2.109l.9-2.109Z" transform="translate(-180.844 -228.98)" fill="#fbbebe"/>
      <path id="Path_79" data-name="Path 79" d="M328.23,620l1.2,6.93H311.359l.9-6.93Z" transform="translate(-78.234 -155.784)" fill="#fbbebe"/>
      <circle id="Ellipse_1" data-name="Ellipse 1" cx="5.724" cy="5.724" r="5.724" transform="translate(229.962 426.105)" fill="#fbbebe"/>
      <path id="Path_80" data-name="Path 80" d="M409.727,659.012s-3.314.3-3.314-.3-.3-2.41-.9-2.109-4.519.6-4.218,1.506.9,2.712.3,2.712a1.961,1.961,0,0,0-1.506,2.41c.3,1.506,3.615,10.544,3.615,10.544s.3,3.013,1.205,3.916a2.7,2.7,0,0,1,0,3.314c-.6.6,1.506,1.205,2.41,2.41s7.833.3,8.134,0,7.532-.3,8.134-.9-.3-2.41-.3-2.41a14.014,14.014,0,0,1,0-3.615c.3-.9-1.205-15.666-2.109-16.57s2.711-3.615,2.711-3.615-.6-2.41-4.519-2.711c0,0-1.205-1.808-2.41-1.808s-3.822,1.4-3.822,1.4-.7,4.021-1.6,4.323a4.967,4.967,0,0,0-1.808,1.506Z" transform="translate(-172.836 -215.432)" fill="#6c63ff"/>
      <path id="Path_81" data-name="Path 81" d="M428.168,656.609l2.109.9s6.025,18.679,5.423,22.294-2.109,15.967-3.013,15.967-2.711-1.808-2.711-1.808v-3.013c0-.6-.9-2.41-.3-2.41s1.506-.6.9-1.205-1.205-1.506-.6-2.41.9-1.205.6-2.109-.9-1.808-.3-2.41-1.506-3.615-1.506-3.615l-3.314-13.256.6-5.423Z" transform="translate(-179.226 -216.645)" fill="#6c63ff"/>
      <path id="Path_82" data-name="Path 82" d="M422.588,694.055s-11.448-.9-12.955-.9-4.886-1.419-4.886-1.419a25.7,25.7,0,0,0-5.659,22.809c3.013,14.16,3.615,31.633,5.423,36.755a95.385,95.385,0,0,1,3.013,11.147s3.013-5.423,8.737.6c0,0,.6-4.519-.3-6.327s-2.109-11.448-2.109-11.448-2.109-15.365-2.109-17.172-1.205-17.172-.9-17.474,1.808,11.749,2.109,13.858,1.205,18.378,2.109,20.185,5.122,16.269,7.532,17.172,10.544-.3,10.243-.9-2.41-3.917-3.013-4.82l-2.41-3.615-5.724-19.583,2.711-23.8S425.9,693.754,422.588,694.055Z" transform="translate(-172.441 -225.471)" fill="#2f2e41"/>
      <path id="Path_83" data-name="Path 83" d="M412.889,642.818h-7.341a1.307,1.307,0,0,1-1.291-1.1l-.73-4.621h11.448l-1.023,4.862A1.086,1.086,0,0,1,412.889,642.818Z" transform="translate(-173.716 -211.742)" fill="#2f2e41"/>
      <path id="Path_84" data-name="Path 84" d="M824.715,573.834H836.3V590.38h0A11.582,11.582,0,0,1,824.715,578.8v-4.964Z" transform="translate(-207.222 -144.184)" fill="#2f2e41"/>
      <path id="Path_85" data-name="Path 85" d="M815.414,703.292l-.827,4.137h5.791l.276-4.137Z" transform="translate(-204.677 -176.712)" fill="#a0616a"/>
      <path id="Path_86" data-name="Path 86" d="M908.486,776.527s-1.1-.827-1.655-.276-2.482,11.306-2.758,11.582-8.549,4.412-6.618,4.688,9.376.552,10.479,0,4.136-5.791,4.136-5.791v4.688h.552s.552-4.964,1.93-6.343-1.1-6.067-1.1-6.067.551-3.033.276-3.033S908.486,776.527,908.486,776.527Z" transform="translate(-297.75 -246.638)" fill="#6c63ff"/>
      <path id="Path_87" data-name="Path 87" d="M838.248,699.425l-.827,4.137h5.791l.276-4.137Z" transform="translate(-210.415 -175.741)" fill="#a0616a"/>
      <path id="Path_88" data-name="Path 88" d="M926.281,727.5s2.758,8.273,3.309,9.1,2.482,16.27,2.482,16.27-1.93,3.033.552,3.309,1.379-.552,3.033,0a3.115,3.115,0,0,0,2.758-.276s.827-1.655.276-2.206.552-14.891.552-14.891l-1.655-4.964-1.379-15.718s1.655-4.136.827-5.239-3.585.827-3.585.827Z" transform="translate(-305.066 -230.699)" fill="#2f2e41"/>
      <path id="Path_89" data-name="Path 89" d="M918.4,703.788s-.827,8.824-1.379,9.376-6.618,15.994-6.618,15.994-1.655,1.93-1.1,9.1,1.93,14.34,1.93,14.34-1.1,4.136.827,4.136,2.758-1.1,3.585-.276,1.379,0,1.655-.552a14.776,14.776,0,0,0,1.379-3.033c0-.552,1.1-14.615,1.1-14.615s9.1-20.131,9.927-21.234,5.515-7.17,5.239-11.306Z" transform="translate(-300.771 -228.5)" fill="#2f2e41"/>
      <circle id="Ellipse_2" data-name="Ellipse 2" cx="5.791" cy="5.791" r="5.791" transform="translate(618.734 426.479)" fill="#a0616a"/>
      <path id="Path_90" data-name="Path 90" d="M929.228,651.853a61.529,61.529,0,0,1,2.482,6.343c.276,1.379,5.515-2.758,5.515-2.758s-2.758-4.688-1.93-6.894Z" transform="translate(-305.806 -214.619)" fill="#a0616a"/>
      <path id="Path_91" data-name="Path 91" d="M935.765,656.4s-4.136-3.033-7.17,3.309-3.861,6.067-3.861,6.067-3.585,1.1-2.482,8.824-3.585,17.924-1.655,18.476,19.855,3.585,19.855,1.379-1.655-10.755-.276-15.994S938.247,655.024,935.765,656.4Z" transform="translate(-303.519 -216.411)" fill="#3f3d56"/>
      <path id="Path_92" data-name="Path 92" d="M933.034,658.487s-3.309,4.964-3.033,8.824.276,6.343.276,6.343-5.515,26.473-4.412,26.473,4.412,1.379,4.688.551,7.17-17.649,7.17-17.649,1.655-16.821-.276-20.682S933.034,658.487,933.034,658.487Z" transform="translate(-304.924 -217.117)" fill="#3f3d56"/>
      <path id="Path_93" data-name="Path 93" d="M926.33,713s-2.758,9.376,1.1,9.652,1.655-9.1,1.655-9.1Z" transform="translate(-304.838 -230.813)" fill="#a0616a"/>
      <path id="Path_94" data-name="Path 94" d="M933.125,770.919s-.966-.724-1.449-.242-2.173,9.9-2.415,10.143-7.486,3.864-5.8,4.105,8.211.483,9.177,0,3.622-5.071,3.622-5.071v4.105h.483s.483-4.347,1.69-5.554-.966-5.313-.966-5.313.483-2.656.241-2.656S933.125,770.919,933.125,770.919Z" transform="translate(-304.294 -245.246)" fill="#6c63ff"/>
      <path id="Path_95" data-name="Path 95" d="M924.465,638.674a1.61,1.61,0,0,1,.7-.494,1.458,1.458,0,0,1,.761.066,7.758,7.758,0,0,1,4.242,3.084,2.381,2.381,0,0,0,.855.925,5.028,5.028,0,0,1,.691.263c.645.426.26,1.414-.11,2.092a10.561,10.561,0,0,0-1.265,5.7,1.63,1.63,0,0,0,.29.966,1.721,1.721,0,0,0,1.146.457,28.315,28.315,0,0,0,4.036.216,4.751,4.751,0,0,0,3.639-1.217,3.83,3.83,0,0,0,.177-4.024c-.6-1.287-1.57-2.363-2.261-3.6a21.127,21.127,0,0,1-1.543-4.1,17.173,17.173,0,0,0-2.28-5.086,6.819,6.819,0,0,0-4.578-2.935c-2.505-.279-4.815,1.263-6.829,2.78-2.261,1.7-4.667,3.809-4.849,6.633-.147,2.288,1.227,4.359,1.945,6.536,1.108,3.362.644,7.014.168,10.521,2.042-1.223,4.352-2.922,4.218-5.3-.09-1.6-1.3-2.883-2.053-4.3C919.492,643.959,921.852,641.343,924.465,638.674Z" transform="translate(-302.802 -210.199)" fill="#2f2e41"/>
      <path id="Path_96" data-name="Path 96" d="M1028.085,670.012a19.836,19.836,0,0,0,2.623-10.055c0-9.087-5.627-16.453-12.568-16.453s-12.568,7.366-12.568,16.453a19.834,19.834,0,0,0,2.623,10.055,20.581,20.581,0,0,0,0,20.109,20.581,20.581,0,0,0,0,20.109,20.581,20.581,0,0,0,0,20.109,19.833,19.833,0,0,0-2.623,10.055c0,9.087,5.627,16.453,12.568,16.453s12.568-7.366,12.568-16.453a19.834,19.834,0,0,0-2.623-10.055,20.58,20.58,0,0,0,0-20.109,20.581,20.581,0,0,0,0-20.109,20.581,20.581,0,0,0,0-20.109Z" transform="translate(-324.988 -213.353)" fill="#3f3d56"/>
      <ellipse id="Ellipse_3" data-name="Ellipse 3" cx="12.568" cy="16.453" rx="12.568" ry="16.453" transform="translate(680.585 410.043)" fill="#3f3d56"/>
      <ellipse id="Ellipse_4" data-name="Ellipse 4" cx="12.568" cy="16.453" rx="12.568" ry="16.453" transform="translate(680.585 389.934)" fill="#3f3d56"/>
      <path id="Path_97" data-name="Path 97" d="M1049.117,395.272a60.329,60.329,0,0,0,4.681-6.89l-33.024-5.424,35.717.266a60.309,60.309,0,0,0,1.15-47.7l-47.918,24.858,44.192-32.484a60.207,60.207,0,1,0-99.434,67.377,60.237,60.237,0,0,0-6.866,10.979l42.871,22.272-45.709-15.341a60.239,60.239,0,0,0,9.707,56.535,60.2,60.2,0,1,0,94.638,0,60.211,60.211,0,0,0,0-74.444Z" transform="translate(-308.913 -126.501)" fill="#f2f2f2"/>
      <path id="Path_98" data-name="Path 98" d="M941.594,477.383a59.945,59.945,0,0,0,12.884,37.222,60.2,60.2,0,1,0,94.638,0C1057.188,504.362,941.594,470.626,941.594,477.383Z" transform="translate(-308.913 -171.389)" fill="#f2f2f2"/>
      <path id="Path_99" data-name="Path 99" d="M1049.117,395.272a60.329,60.329,0,0,0,4.681-6.89l-33.024-5.424,35.717.266a60.309,60.309,0,0,0,1.15-47.7l-47.918,24.858,44.192-32.484a60.207,60.207,0,1,0-99.434,67.377,60.237,60.237,0,0,0-6.866,10.979l42.871,22.272-45.709-15.341a60.239,60.239,0,0,0,9.707,56.535,60.2,60.2,0,1,0,94.638,0,60.211,60.211,0,0,0,0-74.444Z" transform="translate(-308.913 -126.501)" fill="#f2526a"/>
      <path id="Path_100" data-name="Path 100" d="M941.594,477.383a59.945,59.945,0,0,0,12.884,37.222,60.2,60.2,0,1,0,94.638,0C1057.188,504.362,941.594,470.626,941.594,477.383Z" transform="translate(-308.913 -171.389)" opacity="0.1"/>
      <path id="Path_101" data-name="Path 101" d="M183.087,670.012a19.834,19.834,0,0,0,2.623-10.055c0-9.087-5.627-16.453-12.568-16.453s-12.568,7.366-12.568,16.453a19.834,19.834,0,0,0,2.623,10.055,20.581,20.581,0,0,0,0,20.109,20.581,20.581,0,0,0,0,20.109,20.581,20.581,0,0,0,0,20.109,19.835,19.835,0,0,0-2.623,10.055c0,9.087,5.627,16.453,12.568,16.453s12.568-7.366,12.568-16.453a19.834,19.834,0,0,0-2.623-10.055,20.581,20.581,0,0,0,0-20.109,20.581,20.581,0,0,0,0-20.109,20.581,20.581,0,0,0,0-20.109Z" transform="translate(-112.67 -213.353)" fill="#3f3d56"/>
      <ellipse id="Ellipse_5" data-name="Ellipse 5" cx="12.568" cy="16.453" rx="12.568" ry="16.453" transform="translate(47.903 410.043)" fill="#3f3d56"/>
      <ellipse id="Ellipse_6" data-name="Ellipse 6" cx="12.568" cy="16.453" rx="12.568" ry="16.453" transform="translate(47.903 389.934)" fill="#3f3d56"/>
      <path id="Path_102" data-name="Path 102" d="M204.116,395.272a60.338,60.338,0,0,0,4.681-6.89l-33.024-5.424,35.717.266a60.308,60.308,0,0,0,1.15-47.7L164.72,360.38,208.912,327.9a60.207,60.207,0,1,0-99.434,67.377,60.238,60.238,0,0,0-6.866,10.979l42.868,22.272L99.77,413.182a60.238,60.238,0,0,0,9.707,56.535,60.2,60.2,0,1,0,94.638,0,60.211,60.211,0,0,0,0-74.444Z" transform="translate(-96.594 -126.501)" fill="#f2f2f2"/>
      <path id="Path_103" data-name="Path 103" d="M96.594,477.383a59.944,59.944,0,0,0,12.884,37.222,60.2,60.2,0,1,0,94.638,0C212.184,504.362,96.594,470.626,96.594,477.383Z" transform="translate(-96.594 -171.389)" fill="#f2f2f2"/>
      <path id="Path_104" data-name="Path 104" d="M204.116,395.272a60.338,60.338,0,0,0,4.681-6.89l-33.024-5.424,35.717.266a60.308,60.308,0,0,0,1.15-47.7L164.72,360.38,208.912,327.9a60.207,60.207,0,1,0-99.434,67.377,60.238,60.238,0,0,0-6.866,10.979l42.868,22.272L99.77,413.182a60.238,60.238,0,0,0,9.707,56.535,60.2,60.2,0,1,0,94.638,0,60.211,60.211,0,0,0,0-74.444Z" transform="translate(-96.594 -126.501)" fill="#f2526a"/>
      <path id="Path_105" data-name="Path 105" d="M96.594,477.383a59.944,59.944,0,0,0,12.884,37.222,60.2,60.2,0,1,0,94.638,0C212.184,504.362,96.594,470.626,96.594,477.383Z" transform="translate(-96.594 -171.389)" opacity="0.1"/>
      <path id="Path_106" data-name="Path 106" d="M562.829,354.556l-29.872,29.872L518.8,370.275l-5.51,5.51,19.645,19.645,35.4-35.363Z" transform="translate(-128.973 -89.087)" fill="#f5677c"/>
      <path id="Path_107" data-name="Path 107" d="M689.829,263.556l-29.872,29.872L645.8,279.275l-5.51,5.51,19.645,19.645,35.4-35.364Z" transform="translate(-160.884 -66.222)" fill="#f87b8d"/>
    </g>
  </g>
</svg>
